<?xml version="1.0" standalone="no"?>
<!DOCTYPE svg PUBLIC "-//W3C//DTD SVG 1.1//EN" "http://www.w3.org/Graphics/SVG/1.1/DTD/svg11.dtd" >
<svg xmlns="http://www.w3.org/2000/svg">
<metadata>
This is a custom SVG webfont generated by Font Squirrel.
Designer    : Veronika Burian Jos Scaglione
Foundry     : TypeTogether
Foundry URL : wwwtypetogethercom
</metadata>
<defs>
<font id="webfontmpZLAHcD" horiz-adv-x="3108" >
<font-face units-per-em="4096" ascent="3092" descent="-1004" />
<missing-glyph horiz-adv-x="827" />
<glyph unicode=" "  horiz-adv-x="827" />
<glyph unicode="&#x09;" horiz-adv-x="827" />
<glyph unicode="&#xa0;" horiz-adv-x="827" />
<glyph unicode="!" horiz-adv-x="1138" d="M827 803h-516l-73 1438v725h659v-725zM922 270q0 -319 -353 -319q-352 0 -352 319q0 320 352 320q353 0 353 -320z" />
<glyph unicode="&#x22;" horiz-adv-x="1650" d="M717 1831h-553v1061h553v-1061zM1487 1831h-553v1061h553v-1061z" />
<glyph unicode="#" horiz-adv-x="2486" d="M1663 0h-422l70 496h-353l-73 -496h-426l73 496h-409l90 413h385l70 463h-410l86 418h385l66 434h426l-66 -434h352l66 434h426l-66 -434h414l-82 -418h-393l-70 -463h414l-82 -413h-397zM1376 909l70 463h-352l-74 -463h356z" />
<glyph unicode="$" horiz-adv-x="2166" d="M1999 799q0 -315 -170 -508q-169 -192 -469 -258v-361h-508v332q-456 21 -713 148v655h447l53 -287q7 -44 23 -61t55 -29q101 -37 303 -37q414 0 414 291q0 143 -131 227q-128 82 -318 133q-190 50 -373 117q-185 67 -317 228q-131 160 -131 417q0 320 186 512t502 258 v320h512v-299q308 -21 586 -119v-700l-451 45l-49 270q-12 69 -82 90q-82 21 -233 21q-406 0 -406 -275q0 -134 131 -217q129 -82 318 -135q169 -48 372 -123q189 -70 318 -235q131 -167 131 -420z" />
<glyph unicode="%" horiz-adv-x="3637" d="M819 1053q-364 0 -526 198t-162 523q0 360 180 563t541 203q684 0 684 -713q0 -361 -182 -567q-183 -207 -535 -207zM1323 -70h-569l1544 2614h565zM840 1389q122 0 178 102q55 101 55 319q0 200 -53 295t-176 95q-242 0 -242 -398q0 -413 238 -413zM2789 -49 q-363 0 -526 199q-162 198 -162 522q0 360 180 563t541 203q684 0 684 -713q0 -361 -182 -567q-183 -207 -535 -207zM2806 287q128 0 180 100q53 101 53 322q0 201 -51 295t-178 94q-238 0 -238 -398q0 -210 54 -313q52 -100 180 -100z" />
<glyph unicode="&#x26;" horiz-adv-x="2940" d="M2818 0h-692l-225 262q-330 -311 -828 -311q-423 0 -676 223q-254 224 -254 621q0 589 590 835q-151 236 -151 475q0 311 219 494q218 182 571 182q210 0 414 -55q201 -54 315 -125v-643l-438 16l-49 275q-7 48 -58 65q-54 17 -147 17q-118 0 -180 -62t-62 -164 q0 -170 226 -434l458 -541q58 178 95 455h704v-315l-188 -37q-35 -7 -52 -19q-13 -9 -18 -51q-58 -269 -151 -463l258 -294q38 -46 77 -50l242 -37v-319zM1569 635l-541 614q-291 -123 -291 -426q0 -165 94 -272q95 -109 291 -109q271 0 447 193z" />
<glyph unicode="'" horiz-adv-x="884" d="M717 1831h-553v1061h553v-1061z" />
<glyph unicode="(" horiz-adv-x="1458" d="M1311 -442l-471 -267q-290 379 -480 861q-188 476 -188 995q0 970 705 1900l462 -274q-261 -387 -385 -776q-123 -387 -123 -850q0 -474 119 -828q116 -346 361 -761z" />
<glyph unicode=")" horiz-adv-x="1458" d="M594 -709l-463 271q251 381 375 762q125 383 125 856q0 460 -119 825q-117 359 -373 772l467 270q296 -377 488 -866t192 -1001q0 -967 -692 -1889z" />
<glyph unicode="*" horiz-adv-x="1953" d="M684 1565l-348 258l176 229l356 229l-426 -16l-274 90l139 410l275 -90l323 -267l-147 398v286h430v-286l-144 -398h-139l-37 -127l107 -81l-119 -402zM1618 1823l-348 -258l-172 233l-123 402l110 81l-41 127l328 267l275 90l135 -410l-275 -90l-422 16l357 -229z" />
<glyph unicode="+" horiz-adv-x="2334" d="M1409 496h-491v589h-545v476h545v573h491v-573h549v-476h-549v-589z" />
<glyph unicode="," horiz-adv-x="1032" d="M561 -487l-278 81l110 439q12 37 -20 49l-168 57l90 443q283 -5 428 -66t145 -254q0 -108 -86 -282z" />
<glyph unicode="-" horiz-adv-x="1273" d="M1192 930h-1110v520h1110v-520z" />
<glyph unicode="." horiz-adv-x="1110" d="M905 270q0 -319 -348 -319q-352 0 -352 319q0 320 352 320q348 0 348 -320z" />
<glyph unicode="/" horiz-adv-x="1859" d="M631 -377h-586l1151 3469h582z" />
<glyph unicode="0" horiz-adv-x="2465" d="M1212 -49q-582 0 -819 319q-237 320 -237 918q0 1233 1106 1233q574 0 811 -312t237 -888q0 -611 -256 -940q-256 -330 -842 -330zM1237 389q226 0 322 186t96 621q0 426 -90 602t-316 176q-234 0 -334 -184t-100 -610q0 -423 94 -607t328 -184z" />
<glyph unicode="1" horiz-adv-x="1662" d="M1581 0h-1438v324l353 28q41 5 53 19q12 15 12 63v1430q0 69 -53 86l-356 73l45 336h983v-1925q0 -49 10 -63q10 -15 55 -19l336 -28v-324z" />
<glyph unicode="2" horiz-adv-x="2146" d="M2023 0h-1892v381l549 537q271 263 350 346q95 100 166 217q74 122 74 235q0 262 -291 262q-177 0 -248 -75q-72 -77 -72 -289l-557 49q5 758 930 758q860 0 860 -656q0 -181 -90 -356q-92 -180 -184 -279q-86 -93 -291 -290l-463 -443h602q59 0 66 49l57 324h434v-770z " />
<glyph unicode="3" horiz-adv-x="2125" d="M1446 1102v-17q541 -83 541 -630q0 -393 -269 -594q-268 -201 -723 -201q-308 0 -569 100q-262 100 -422 277l328 360q279 -270 614 -270q426 0 426 369q0 352 -409 352q-128 0 -304 -29v410l201 24q455 57 455 443q0 282 -299 282q-176 0 -252 -77t-76 -287l-561 49 q0 758 917 758q458 0 666 -170q207 -169 207 -510q0 -246 -133 -412t-338 -227z" />
<glyph unicode="4" horiz-adv-x="2281" d="M1868 -274h-565v528h-1197v422l840 1757l537 -246l-774 -1454h594v660l565 86v-746h340v-479h-340v-528z" />
<glyph unicode="5" horiz-adv-x="2220" d="M1884 1843h-1085l-58 -561q212 139 521 139q368 0 579 -213q211 -212 211 -622q0 -398 -266 -662t-742 -264q-679 0 -1032 377l328 373q279 -279 651 -279q193 0 318 113t125 321q0 226 -115 312t-266 86q-225 0 -394 -177l-405 168l90 1405h1069q41 0 53 49l54 226 l364 24v-815z" />
<glyph unicode="6" horiz-adv-x="2314" d="M2134 2007l-578 -70q0 185 -63 254q-64 70 -227 70q-435 0 -459 -766q272 160 573 160q370 0 584 -201q215 -201 215 -590q0 -458 -268 -686q-267 -227 -715 -227q-293 0 -494 100q-202 101 -315 291q-112 190 -162 422q-49 229 -49 534q0 242 51 465q50 220 166 441 q114 218 342 348q229 131 543 131q856 0 856 -676zM807 1085q5 -154 20 -251q16 -102 56 -211q39 -108 121 -164q84 -58 204 -58q344 0 344 435q0 209 -73 294q-75 87 -258 87q-199 0 -414 -132z" />
<glyph unicode="7" horiz-adv-x="2179" d="M1249 -274h-651q106 1248 893 2117h-782q-30 0 -37 -10q-11 -15 -17 -43l-65 -344l-430 -33v946h1978v-463q-371 -396 -622 -983q-250 -585 -267 -1187z" />
<glyph unicode="8" horiz-adv-x="2211" d="M1647 1393q430 -246 430 -652q0 -385 -279 -587q-280 -203 -733 -203q-447 0 -688 180q-242 180 -242 528q0 220 103 385q104 166 286 316q-303 208 -303 561q0 365 250 563q252 199 647 199q402 0 627 -174t225 -481q0 -354 -323 -635zM918 1151q-271 -251 -271 -459 q0 -332 426 -332q188 0 285 86q96 86 96 226q0 53 -12 98q-12 46 -51 86l-64 68q-22 24 -92 65q-77 44 -94 53q-23 13 -115 58t-108 51zM1237 1589q213 221 213 410q0 278 -328 278q-152 0 -231 -73q-80 -74 -80 -193q0 -71 31 -135q30 -62 98 -113q72 -54 127 -86 q74 -43 170 -88z" />
<glyph unicode="9" horiz-adv-x="2334" d="M217 -37l262 377q263 -221 570 -221q270 0 372 180q103 182 115 504q-242 -156 -573 -156q-353 0 -576 227t-223 633q0 439 258 676q259 238 713 238q1037 0 1036 -1319q0 -1438 -1094 -1438q-244 0 -481 80q-235 79 -379 219zM1536 1245q-7 145 -25 268q-17 115 -57 228 q-40 114 -123 174q-81 59 -201 59q-339 0 -339 -434q0 -227 73 -334q74 -108 254 -108q210 0 418 147z" />
<glyph unicode=":" horiz-adv-x="1110" d="M905 270q0 -319 -348 -319q-352 0 -352 319q0 320 352 320q348 0 348 -320zM905 1827q0 -320 -348 -320q-352 0 -352 320q0 319 352 319q348 0 348 -319z" />
<glyph unicode=";" horiz-adv-x="1044" d="M561 -487l-278 81l110 439q12 37 -20 49l-168 57l90 443q283 -5 428 -66t145 -254q0 -108 -86 -282zM922 1827q0 -320 -349 -320q-352 0 -352 320q0 319 352 319q349 0 349 -319z" />
<glyph unicode="&#x3c;" horiz-adv-x="2334" d="M1880 344l-1597 561v574l1589 581l139 -463l-1196 -401l1204 -401z" />
<glyph unicode="=" horiz-adv-x="2334" d="M1958 532h-1581v480h1581v-480zM1958 1294h-1581v480h1581v-480z" />
<glyph unicode="&#x3e;" horiz-adv-x="2334" d="M2019 905l-1597 -561l-139 451l1204 401l-1192 401l135 463l1589 -581v-574z" />
<glyph unicode="?" horiz-adv-x="2162" d="M1200 803h-618v745q126 11 225 23q91 11 213 47q129 38 199 92q71 55 127 156q55 100 55 235q0 171 -86 266t-246 95q-157 0 -274 -49q-47 -17 -54 -82l-36 -263l-500 -36v753q474 181 893 181q991 0 991 -844q0 -398 -227 -643q-228 -246 -662 -299v-377zM1241 270 q0 -319 -348 -319q-352 0 -352 319q0 320 352 320q348 0 348 -320z" />
<glyph unicode="@" horiz-adv-x="3444" d="M2437 -287l98 -336q-325 -143 -831 -143q-679 0 -1075 375t-396 1079q0 738 441 1188q442 451 1149 451q643 0 1030 -342t387 -961q0 -546 -217 -809q-217 -264 -590 -264q-369 0 -471 282q-291 -282 -500 -282q-218 0 -342 149q-125 151 -125 428q0 458 244 779 q243 319 657 319q290 0 570 -131l-94 -602q-54 -304 -54 -434q0 -160 152 -160q102 0 178 72q75 71 113 186q35 107 53 223q16 105 16 211q0 464 -250 715q-250 252 -770 252q-566 0 -864 -369q-299 -370 -299 -901q0 -537 289 -819q291 -283 817 -283q337 0 684 127z M1925 524l119 754q-68 49 -180 49q-185 0 -320 -207t-135 -526q0 -287 164 -287q163 0 352 217z" />
<glyph unicode="A" d="M3097 0h-1295v319l336 37l-147 426h-1016l-144 -426l324 -37v-319h-1143v319l181 46q81 21 102 77l897 2524h725l893 -2532q16 -48 98 -69l189 -46v-319zM1868 1225l-365 1114h-24l-377 -1114h766z" />
<glyph unicode="B" horiz-adv-x="2752" d="M1499 0h-1343v319l258 29q41 5 53 21q12 17 12 61v2097q0 49 -12 64q-11 13 -53 18l-258 29v328h1380q897 0 897 -725q0 -272 -143 -445q-145 -175 -357 -244v-12q684 -78 684 -725q0 -815 -1118 -815zM1110 442h283q281 0 426 95q143 94 143 344q0 430 -508 430h-344 v-869zM1110 1720h164q257 0 407 90t150 328q0 228 -125 305q-124 76 -371 76h-225v-799z" />
<glyph unicode="C" horiz-adv-x="2772" d="M2589 938v-762q-369 -225 -1024 -225q-1438 0 -1438 1544q0 684 393 1104t1131 420q572 0 929 -234v-803l-450 37l-66 402q-12 56 -65 73q-158 50 -365 50q-396 0 -624 -269t-228 -780q0 -533 217 -805t607 -272q235 0 409 53q35 7 51 25q16 17 23 61l61 381h439z" />
<glyph unicode="D" horiz-adv-x="3080" d="M1413 0h-1257v328l258 28q41 5 53 19q12 15 12 63v2093q0 45 -12 62q-11 15 -53 20l-258 29v324h1327q750 0 1110 -375t360 -1063q0 -709 -385 -1118q-386 -410 -1155 -410zM1114 442h234q962 0 962 1049q0 557 -221 795q-221 237 -717 237h-258v-2081z" />
<glyph unicode="E" horiz-adv-x="2568" d="M2425 0h-2269v319l258 29q41 5 53 21q12 17 12 61v2101q0 49 -12 64q-11 13 -53 18l-258 29v324h2179v-828l-451 21l-57 311q-12 53 -70 53h-643v-807h959v-454h-959v-824h733q59 0 66 45l65 361h447v-844z" />
<glyph unicode="F" horiz-adv-x="2469" d="M1782 0h-1626v319l258 29q41 5 53 21q12 17 12 61v2101q0 49 -12 64q-11 13 -53 18l-258 29v324h2162v-828l-450 21l-58 311q-12 53 -69 53h-627v-803h942v-454h-942v-828q0 -49 10 -63t56 -19l602 -32v-324z" />
<glyph unicode="G" horiz-adv-x="2957" d="M2920 1102l-167 -17q-66 -5 -66 -57v-881q-413 -196 -1061 -196q-406 0 -706 115q-298 114 -467 327q-171 214 -250 484q-80 272 -80 614q0 685 393 1106q393 422 1143 422q234 0 493 -62q257 -62 433 -176v-774l-455 33l-62 368q-17 70 -65 82q-194 54 -377 54 q-393 0 -618 -281q-226 -282 -226 -764q0 -517 219 -797t654 -280q174 0 340 29q65 12 65 73v537h-454l57 369h1257v-328z" />
<glyph unicode="H" horiz-adv-x="3350" d="M3207 0h-1294v319l258 29q41 5 53 21q12 17 12 61v864h-1122v-860q0 -49 10 -63t56 -19l274 -33v-319h-1298v319l258 29q41 5 53 21q12 17 12 61v2097q0 49 -12 64q-11 13 -53 18l-258 29v328h1298v-328l-274 -33q-47 -5 -56 -18q-10 -14 -10 -60v-774h1122v774 q0 49 -12 64q-11 13 -53 18l-258 29v328h1294v-328l-274 -33q-47 -5 -56 -18q-10 -14 -10 -60v-2093q0 -49 10 -63t56 -19l274 -33v-319z" />
<glyph unicode="I" horiz-adv-x="1654" d="M1524 0h-1377v319l299 29q43 5 54 19q12 15 12 63v2097q0 49 -12 64q-11 13 -54 18l-299 29v328h1377v-328l-316 -33q-46 -5 -55 -18q-10 -14 -10 -60v-2093q0 -49 10 -63q10 -15 55 -19l316 -33v-319z" />
<glyph unicode="J" horiz-adv-x="2113" d="M1053 672v1859q0 44 -13 60q-11 13 -53 18l-369 29v328h1410v-328l-275 -33q-45 -4 -55 -16q-10 -11 -10 -58v-1863q0 -365 -185 -541t-590 -176q-236 0 -454 49q-222 50 -316 111v729l459 -33l41 -295q5 -41 45 -53q77 -25 164 -25q111 0 156 53t45 185z" />
<glyph unicode="K" horiz-adv-x="3080" d="M3043 0h-905l-766 1184l-258 -307v-439q0 -49 10 -63t56 -19l315 -32v-324h-1339v324l258 28q41 5 53 19q12 15 12 63v2097q0 45 -12 62q-11 15 -53 20l-258 29v324h1298v-324l-274 -33q-47 -5 -56 -18q-10 -14 -10 -60v-1024l967 1098l-254 33v328h1073v-328l-172 -29 q-82 -12 -127 -69l-754 -852l824 -1258q38 -58 118 -65l254 -41v-324z" />
<glyph unicode="L" horiz-adv-x="2555" d="M2425 0h-2269v324l258 28q41 5 53 21q12 17 12 61v2097q0 49 -12 64q-11 13 -53 18l-258 29v324h1364v-324l-340 -33q-47 -5 -56 -18q-10 -14 -10 -60v-2093h729q59 0 66 45l65 410h451v-893z" />
<glyph unicode="M" horiz-adv-x="3940" d="M3797 0h-1348v319l336 29q42 5 54 21q12 17 12 61v1557h-17l-585 -1397h-668l-577 1401h-21v-1557q0 -49 10 -63t56 -19l352 -33v-319h-1245v319l258 29q41 5 53 21q12 17 12 61v2101q0 45 -12 62q-11 15 -53 20l-258 29v324h1097l713 -1856h16l750 1856h1065v-320 l-274 -33q-47 -5 -56 -18q-10 -14 -10 -60v-2105q0 -70 66 -78l274 -33v-319z" />
<glyph unicode="N" horiz-adv-x="3387" d="M2933 0h-672l-1307 2138v-1704q0 -47 11 -63q10 -15 55 -19l274 -33v-319h-1138v319l258 29q41 5 53 21q12 17 12 61v2105q0 49 -12 64q-11 13 -53 18l-258 29v320h1015l1287 -2143v1704q0 48 -13 64q-11 13 -53 18l-258 29v328h1139v-328l-275 -33q-46 -5 -55 -18 q-10 -14 -10 -60v-2527z" />
<glyph unicode="O" d="M1536 -49q-713 0 -1061 411t-348 1113q0 683 381 1114q381 430 1085 430q693 0 1041 -416q348 -415 348 -1075q0 -739 -367 -1159q-366 -418 -1079 -418zM1561 455q770 0 770 1036q0 1012 -746 1012q-368 0 -586 -254q-217 -253 -217 -762q0 -1032 779 -1032z" />
<glyph unicode="P" horiz-adv-x="2646" d="M1761 0h-1605v324l258 28q41 5 53 21q12 17 12 61v2093q0 49 -12 64q-11 13 -53 18l-258 29v328h1388q528 0 758 -240q229 -239 229 -633q0 -999 -1122 -999h-299v-656q0 -49 10 -63t56 -19l585 -32v-324zM1110 1532h205q119 0 207 18q84 17 176 70q87 50 137 162 q49 110 49 274q0 271 -139 367t-393 96h-242v-987z" />
<glyph unicode="Q" horiz-adv-x="3104" d="M2363 -352l119 -361q-286 -151 -581 -151q-648 0 -648 610q0 101 13 221q-583 69 -869 471q-286 401 -286 1037q0 683 381 1114q381 430 1085 430q471 0 790 -205t459 -533t140 -753q0 -651 -287 -1057q-287 -405 -844 -491q-8 -53 -8 -140q0 -128 55 -190 q56 -64 186 -64q142 0 295 62zM1548 455q770 0 770 1036q0 1012 -745 1012q-372 0 -590 -254q-217 -253 -217 -762q0 -1032 782 -1032z" />
<glyph unicode="R" horiz-adv-x="2813" d="M2806 0h-893l-369 1028q-38 108 -88 146t-153 38h-193v-770q0 -49 10 -63t56 -19l286 -32v-328h-1306v328l258 28q41 5 53 19q12 15 12 63v2093q0 45 -12 62q-11 15 -53 20l-258 29v324h1396q513 0 734 -230t221 -590q0 -549 -541 -786q139 -66 238 -328l225 -586 q37 -65 123 -77l254 -41v-328zM1110 1638h188q263 0 410 99t147 372q0 230 -129 320t-411 90h-205v-881z" />
<glyph unicode="S" horiz-adv-x="2428" d="M2179 2056l-463 41l-49 332q-7 61 -49 78q-144 45 -299 45q-226 0 -342 -94q-117 -94 -117 -254q0 -80 37 -142q37 -63 76 -100q37 -36 141 -80q81 -34 150 -59q62 -22 186 -58q181 -55 299 -104q111 -47 250 -145q140 -99 207 -256q67 -156 67 -375q0 -475 -321 -705 q-320 -229 -830 -229q-255 0 -532 53q-273 52 -406 115v799h459l82 -390q7 -61 70 -73q180 -45 344 -45q516 0 516 381q0 95 -37 163q-38 70 -117 119t-155 76q-48 17 -199 63q-397 113 -549 201q-356 212 -356 684q0 454 303 688t794 234q450 0 840 -164v-799z" />
<glyph unicode="T" horiz-adv-x="2842" d="M2257 0h-1639v324l422 28q43 5 54 19q12 15 12 63v2085h-422q-58 0 -66 -45l-65 -356h-451v848h2638v-848h-446l-66 356q-8 45 -65 45h-422v-2085q0 -45 10 -59q10 -15 55 -19l451 -32v-324z" />
<glyph unicode="U" horiz-adv-x="3215" d="M2224 1176v1355q0 49 -12 64q-11 13 -53 18l-258 29v324h1212v-324l-274 -33q-47 -5 -56 -18q-10 -14 -10 -60v-1470q0 -565 -303 -838q-302 -272 -864 -272q-607 0 -885 274q-279 275 -279 852v1454q0 49 -12 64q-11 13 -53 18l-254 29v324h1294v-324l-274 -33 q-47 -5 -56 -18q-10 -14 -10 -60v-1339q0 -377 117 -551t436 -174q327 0 461 160q133 158 133 549z" />
<glyph unicode="V" horiz-adv-x="3010" d="M1962 0h-836l-823 2531q-16 49 -98 70l-185 45l41 320h1242v-320l-332 -37l614 -2048h33l594 2048l-328 37l41 320h1061v-320l-172 -45q-90 -21 -102 -78z" />
<glyph unicode="W" horiz-adv-x="4272" d="M3375 0h-827l-402 1499h-24l-377 -1499h-803l-618 2527q-12 53 -91 74l-208 45l41 320h1253v-320l-344 -41l418 -2003h32l471 1815h623l467 -1827h33l422 2015l-344 41l41 320h1105v-320l-192 -45q-73 -12 -94 -74z" />
<glyph unicode="X" horiz-adv-x="3166" d="M3097 0h-1344v319l324 37l-557 750l-553 -750l315 -37v-319h-1171v319l237 46q70 17 107 77l778 1008l-819 1081q-34 54 -99 70l-213 45l41 320h1282v-320l-319 -37l532 -745l557 745l-315 37l41 320h1081v-320l-200 -45q-58 -17 -103 -78l-766 -991l840 -1090 q60 -65 102 -77l222 -46v-319z" />
<glyph unicode="Y" horiz-adv-x="2768" d="M2241 0h-1606v324l409 28q43 5 54 19q12 15 12 63v672l-815 1425q-29 46 -98 70l-185 45l41 320h1229v-320l-319 -37l495 -967h33l496 967l-316 37l41 320h1045v-320l-172 -45q-79 -21 -103 -78l-741 -1409v-680q0 -45 10 -59q10 -15 55 -19l435 -32v-324z" />
<glyph unicode="Z" horiz-adv-x="2752" d="M2568 0h-2359v397l1532 2126h-910q-57 0 -65 -45l-78 -385l-442 -12v885h2248v-414l-1511 -2114h999q58 0 66 45l78 439h442v-922z" />
<glyph unicode="[" horiz-adv-x="1261" d="M1114 -586h-917v3552h917v-312l-254 -45q-65 -7 -65 -82v-2670q0 -79 65 -86l254 -45v-312z" />
<glyph unicode="\" horiz-adv-x="1843" d="M1794 -377h-565l-1147 3469h561z" />
<glyph unicode="]" horiz-adv-x="1261" d="M1065 2966v-3552h-930v312l266 45q66 7 66 86v2588q0 152 -66 164l-266 45v312h930z" />
<glyph unicode="^" horiz-adv-x="2494" d="M2372 1225h-590l-545 983l-532 -983h-582l807 1495h626z" />
<glyph unicode="_" horiz-adv-x="2048" d="M2048 -741h-2048v438h2048v-438z" />
<glyph unicode="`" horiz-adv-x="2048" d="M1524 2503l-234 -205l-729 598l336 319z" />
<glyph unicode="a" horiz-adv-x="2281" d="M2236 0h-753l-41 221l-21 4q-281 -274 -688 -274q-598 0 -598 606q0 303 189 455q190 152 577 176l471 33v225q0 169 -49 246t-225 77q-164 0 -232 -51q-67 -51 -67 -223l-578 49q0 631 881 631q478 0 676 -160q196 -159 196 -581v-996q0 -47 11 -63q10 -15 55 -19 l196 -32v-324zM1372 541v340l-278 -21q-180 -12 -254 -65t-74 -177q0 -225 233 -225q171 0 373 148z" />
<glyph unicode="b" horiz-adv-x="2494" d="M840 0h-586q61 390 61 598v1999q0 69 -53 86l-225 78l45 331h844v-1134l16 -4q271 221 619 221q355 0 573 -254q217 -253 217 -795q0 -606 -229 -890q-230 -285 -631 -285q-373 0 -602 258l-21 -4zM930 1548v-958q177 -160 377 -160q397 0 397 664q0 261 -92 430 q-92 168 -285 168q-179 0 -397 -144z" />
<glyph unicode="c" horiz-adv-x="2088" d="M1802 532l160 -380q-332 -201 -778 -201q-533 0 -803 297t-270 788q0 557 305 848q304 291 817 291q226 0 424 -51q196 -51 305 -121v-643l-438 20l-49 271q-7 52 -50 65q-87 29 -208 29q-201 0 -328 -156q-127 -155 -127 -491q0 -684 528 -684q239 0 512 118z" />
<glyph unicode="d" horiz-adv-x="2502" d="M2441 0h-762l-41 229l-28 4q-291 -282 -672 -282q-795 0 -795 1089q0 577 246 856t623 279q311 0 577 -197v623q0 65 -53 82l-225 78l45 331h823v-2662q0 -45 10 -59t56 -19l196 -28v-324zM1565 610v967q-180 123 -353 123q-217 0 -319 -176t-102 -471q0 -619 372 -619 q196 0 402 176z" />
<glyph unicode="e" horiz-adv-x="2150" d="M1860 565l151 -405q-432 -209 -840 -209q-560 0 -811 305q-249 303 -249 825q0 533 284 813q286 281 731 281q427 0 664 -240q238 -241 238 -751q0 -79 -9 -275h-1253q33 -483 483 -483q236 0 611 139zM770 1298h651q-5 435 -307 435q-311 0 -344 -435z" />
<glyph unicode="f" horiz-adv-x="1789" d="M1597 0h-1486v328l229 24q41 5 53 21q13 18 13 65v1245q0 41 -33 41h-275v410h308v225q0 405 221 594t655 189q156 0 279 -25q119 -24 227 -84q109 -61 168 -180t59 -301l-573 -70v28q0 129 -39 177q-44 53 -150 53q-143 0 -186 -71t-43 -236v-258q0 -41 33 -41h647v-410 h-680v-1273q0 -50 14 -64q13 -13 60 -18l499 -45v-324z" />
<glyph unicode="g" horiz-adv-x="2330" d="M2277 1786l-376 -29q151 -191 151 -414q0 -336 -240 -528t-632 -192q-199 0 -324 36l-135 -217l401 -24q600 -38 783 -103q299 -99 336 -397q8 -53 8 -111q0 -352 -295 -544q-297 -193 -832 -193q-1024 0 -1024 512q0 125 52 215t174 203q-181 78 -181 270q0 122 119 250 q91 95 254 246q-160 78 -256 238q-96 159 -96 376q0 366 239 580q241 215 699 215q219 0 377 -41h798v-348zM1511 1401q0 180 -98 274t-274 94q-180 0 -287 -92t-107 -284q0 -340 381 -340q173 0 279 94t106 254zM1286 -152l-598 41q-106 -130 -106 -217q0 -213 495 -213 q561 0 561 238q0 50 -22 78t-84 43q-52 13 -105 20q-39 5 -141 10z" />
<glyph unicode="h" horiz-adv-x="2555" d="M2507 0h-889v1335q0 348 -217 348q-218 0 -426 -151v-1098q0 -49 10 -63q10 -15 55 -19l197 -28v-324h-1131v324l185 28q41 5 53 21q12 17 12 61v2163q0 69 -53 86l-225 78l45 331h844v-1159l20 -4q299 246 655 246q316 0 455 -166t139 -498v-1077q0 -47 11 -63 q10 -15 55 -19l205 -28v-324z" />
<glyph unicode="i" horiz-adv-x="1294" d="M983 2830q0 -177 -98 -272q-99 -96 -275 -96t-272 96t-96 272q0 178 96 269q97 92 272 92q180 0 277 -92q96 -91 96 -269zM1249 0h-1167v324l209 28q41 5 53 21q12 17 12 61v1204q0 69 -53 86l-221 78l45 332h848v-1700q0 -49 10 -63q10 -15 55 -19l209 -28v-324z" />
<glyph unicode="j" horiz-adv-x="1245" d="M348 -115v1753q0 69 -53 86l-234 78l50 332h856v-2351q0 -696 -713 -696q-227 0 -412 67q-187 68 -272 141l176 340q172 -106 356 -106q132 0 189 76q57 77 57 280zM979 2830q0 -177 -98 -272q-99 -96 -275 -96q-175 0 -274 96t-99 272q0 172 99 267q98 94 274 94 q180 0 277 -92q96 -91 96 -269z" />
<glyph unicode="k" horiz-adv-x="2539" d="M2511 0h-795l-520 1044l-221 -241v-369q0 -49 10 -63q10 -15 55 -19l246 -28v-324h-1200v324l205 28q41 5 53 21q12 17 12 61v2163q0 69 -53 86l-225 78l45 331h852v-1749l749 791h566v-324l-213 -41q-53 -8 -103 -61l-291 -307l525 -979q33 -62 123 -74l180 -29v-319z " />
<glyph unicode="l" horiz-adv-x="1294" d="M1241 0h-1155v324l205 28q41 5 53 21q12 17 12 61v2163q0 69 -53 86l-225 78l45 331h852v-2658q0 -49 10 -63q10 -15 55 -19l201 -28v-324z" />
<glyph unicode="m" horiz-adv-x="3641" d="M3588 0h-889v1323q0 105 -10 168q-10 65 -66 125q-55 59 -153 59q-166 0 -332 -110q12 -99 12 -201v-930q0 -51 11 -67q10 -15 55 -19l164 -24v-324h-848v1343q0 71 -6 117q-6 43 -25 103q-18 55 -65 84q-46 28 -121 28q-183 0 -340 -131v-1110q0 -48 8 -61q9 -14 57 -21 l201 -28v-324h-1135v324l185 28q41 5 53 21q12 17 12 61v1204q0 69 -53 86l-221 78l45 332h721l33 -213l20 -4q315 258 655 258q353 0 500 -246q312 246 660 246q323 0 462 -166q140 -167 140 -526v-1049q0 -49 10 -65q11 -17 55 -21l205 -24v-324z" />
<glyph unicode="n" horiz-adv-x="2555" d="M2507 0h-889v1323q0 121 -10 184q-10 65 -60 121q-49 55 -147 55q-106 0 -230 -47q-121 -46 -196 -104v-1098q0 -49 10 -63q10 -15 55 -19l197 -28v-324h-1131v328l185 24q41 5 53 21q12 17 12 61v1204q0 69 -53 86l-221 78l49 332h717l33 -213l16 -8q352 262 721 262 q328 0 473 -174q145 -173 145 -522v-1045q0 -47 11 -63q10 -15 55 -19l205 -28v-324z" />
<glyph unicode="o" horiz-adv-x="2379" d="M1163 -49q-536 0 -794 297t-258 805q0 526 278 823q279 299 828 299q540 0 796 -289t256 -788q0 -539 -278 -842q-279 -305 -828 -305zM1192 381q430 0 430 696q0 353 -102 504q-102 152 -312 152q-450 0 -450 -660q0 -692 434 -692z" />
<glyph unicode="p" horiz-adv-x="2519" d="M1438 -868h-1336v327l164 25q45 8 60 24q14 15 14 62v2068q0 69 -53 86l-217 78l45 332h721l36 -209l21 -8q319 258 696 258q365 0 576 -252q211 -251 211 -797q0 -156 -23 -311q-23 -153 -82 -313q-61 -166 -149 -281q-88 -116 -244 -194q-152 -76 -346 -76 q-327 0 -586 209v-586q0 -49 10 -63t56 -19l426 -37v-323zM954 1540v-954q180 -156 385 -156q390 0 390 664q0 594 -349 594q-207 0 -426 -148z" />
<glyph unicode="q" horiz-adv-x="2441" d="M2437 -868h-1245v327l352 29q51 5 66 18q16 15 16 56v643l-20 8q-307 -262 -648 -262q-380 0 -598 260q-217 259 -217 813q0 586 252 868q253 283 625 283q325 0 594 -233l61 192h537q-33 -308 -33 -664v-1908q0 -46 10 -60q9 -13 56 -18l192 -29v-323zM1561 602v967 q-193 131 -361 131q-209 0 -311 -178q-103 -180 -103 -469q0 -619 385 -619q193 0 390 168z" />
<glyph unicode="r" horiz-adv-x="1937" d="M1446 0h-1340v332l185 24q41 5 53 21q12 17 12 61v1200q0 69 -53 86l-221 78l45 332h721l49 -328h25q237 369 577 369q227 0 356 -37v-745l-491 16l-41 217q-7 45 -53 45q-133 0 -295 -143v-1086q0 -49 10 -63q10 -15 55 -19l406 -32v-328z" />
<glyph unicode="s" horiz-adv-x="1994" d="M1823 1462l-439 29l-41 213q-5 50 -40 57q-107 33 -263 33q-319 0 -319 -209q0 -73 63 -123q61 -48 140 -71q89 -26 215 -56l57 -12q152 -34 248 -70q106 -40 213 -108q113 -72 170 -195t57 -295q0 -356 -254 -530t-672 -174q-253 0 -499 51t-312 96v594l439 -33l41 -233 q5 -54 49 -61q125 -41 315 -41q340 0 340 213q0 111 -94 163q-96 53 -279 86q-121 24 -155 29q-42 6 -150 37q-103 29 -153 55t-129 80q-74 51 -113 115q-35 58 -65 153q-29 93 -29 203q0 357 260 537t645 180q450 0 754 -119v-594z" />
<glyph unicode="t" horiz-adv-x="1785" d="M1581 475l111 -360q-337 -164 -668 -164q-361 0 -516 155q-156 156 -156 504v1073q0 41 -33 41h-286v365q270 29 393 180t156 488h389v-582q0 -41 33 -41h577v-410h-610v-979q0 -189 57 -262t221 -73q159 0 332 65z" />
<glyph unicode="u" horiz-adv-x="2551" d="M2482 0h-762l-32 221l-21 4q-104 -81 -188 -131q-82 -49 -230 -96q-149 -47 -311 -47q-316 0 -455 178t-139 543v999q0 50 -10 64q-10 15 -55 22l-197 41l41 336h840v-1356q0 -192 45 -268t172 -76q216 0 422 189v1052q0 49 -11 62t-55 20l-176 41l45 336h815v-1700 q0 -45 10 -59q10 -15 47 -19l205 -28v-328z" />
<glyph unicode="v" horiz-adv-x="2551" d="M1638 0h-716l-652 1696q-21 53 -86 69l-172 37l66 332h1110v-332l-262 -33l417 -1167h29l434 1167l-266 33l53 332h947v-332l-148 -24q-81 -21 -102 -70z" />
<glyph unicode="w" horiz-adv-x="3600" d="M2839 0h-648l-319 1372h-25l-323 -1372h-738l-516 1696q-16 52 -86 69l-172 37l66 332h1036v-340l-229 -25l327 -1151h29l365 1463h618l352 -1463h25l307 1151l-233 25l53 340h860v-332l-147 -28q-78 -12 -99 -82z" />
<glyph unicode="x" horiz-adv-x="2469" d="M2429 0h-1163v319l192 37l-311 410l-340 -406l229 -36v-324h-983v319l185 37q53 8 106 70l541 598l-557 664q-50 52 -99 69l-163 45l40 332h1090v-332l-201 -33l303 -380l336 380l-225 33l41 332h905v-332l-188 -41q-23 -7 -103 -78l-499 -553l573 -700q66 -66 107 -74 l184 -32v-324z" />
<glyph unicode="y" horiz-adv-x="2535" d="M1815 -868h-1364v331l319 37q64 4 102 90l177 390l-783 1712q-16 52 -86 69l-168 41l66 332h1085v-332l-258 -33l455 -1081h29l434 1081l-267 33l54 332h913v-332l-131 -24q-78 -12 -102 -70l-901 -2204l426 -45v-327z" />
<glyph unicode="z" horiz-adv-x="2117" d="M2003 0h-1860v344l1098 1405h-573q-37 0 -45 -53l-50 -230l-434 -24v692h1798v-352l-1077 -1401h602q37 0 45 53l49 283l447 20v-737z" />
<glyph unicode="{" horiz-adv-x="1355" d="M1221 -283l-41 -327q-491 7 -686 129q-195 121 -195 440q0 102 29 354q28 243 28 404q0 168 -67 231q-69 65 -219 72v323q150 7 219 72q67 63 67 232q0 159 -28 405q-29 255 -29 356q0 320 195 441q195 122 686 129l41 -328q-170 -40 -232 -94q-59 -52 -59 -201 q0 -103 33 -340q32 -230 32 -368q0 -356 -258 -467q258 -111 258 -463q0 -135 -32 -365q-33 -237 -33 -340q0 -148 59 -200q63 -55 232 -95z" />
<glyph unicode="|" horiz-adv-x="1146" d="M852 -586h-561v3678h561v-3678z" />
<glyph unicode="}" horiz-adv-x="1355" d="M176 -610l-41 327q169 40 232 95q59 52 59 200q0 103 -33 340t-33 365q0 352 258 463q-258 111 -258 467q0 131 33 368t33 340q0 149 -59 201q-62 54 -232 94l41 328q491 -7 686 -129q195 -121 195 -441q0 -101 -29 -356t-29 -405q0 -169 68 -232q69 -65 219 -72v-323 q-150 -7 -219 -72q-68 -63 -68 -231q0 -152 29 -404t29 -354q0 -319 -195 -440q-195 -122 -686 -129z" />
<glyph unicode="~" horiz-adv-x="2146" d="M1737 1884l319 -119q-50 -296 -160 -436q-111 -141 -303 -141q-157 0 -473 94t-432 94q-102 0 -166 -41q-63 -41 -125 -155l-303 147q66 241 203 393t326 152q165 0 462 -94q300 -95 426 -95q96 0 140 43q45 44 86 158z" />
<glyph unicode="&#xa1;" horiz-adv-x="1138" d="M311 1282h516l70 -1438v-725h-659v725zM922 1815q0 -320 -353 -320q-352 0 -352 320q0 319 352 319q353 0 353 -319z" />
<glyph unicode="&#xa2;" horiz-adv-x="2121" d="M172 1163q0 417 203 682t571 334v434h516v-418q303 -38 520 -159v-615l-421 21l-41 241q-12 58 -54 70q-79 29 -204 29q-426 0 -426 -594q0 -328 102 -479q102 -152 324 -152q136 0 213 25q34 12 41 61l49 258l422 17v-615q-227 -136 -557 -160v-417h-512v434 q-746 135 -746 1003z" />
<glyph unicode="&#xa3;" horiz-adv-x="2306" d="M2191 0h-2007l-65 369q189 111 241 243q54 137 54 498v33h-287v450h287v168q0 922 966 922q143 0 244 -14q109 -15 221 -60q113 -45 189 -117q77 -73 123 -194q47 -124 47 -291l-562 -74q0 156 -55 232t-198 76q-361 0 -361 -410v-238h598v-450h-598q0 -258 -51 -432 t-191 -314h856q43 0 50 49l65 324h434v-770z" />
<glyph unicode="&#xa4;" horiz-adv-x="2334" d="M2318 319l-340 -331l-356 352q-213 -123 -479 -123q-298 0 -500 119l-156 -156l-192 -192l-328 327l361 365q-99 192 -99 463q0 240 107 430l-166 168l-190 192l335 340l336 -340q214 140 516 140q290 0 504 -131l328 327l323 -332l-344 -344q99 -225 99 -434 q0 -249 -119 -479zM1159 659q192 0 301 138t109 346q0 225 -107 350t-311 125q-200 0 -305 -131t-105 -344t105 -348q106 -136 313 -136z" />
<glyph unicode="&#xa5;" horiz-adv-x="2478" d="M2097 881h-528v-447q0 -45 10 -59q10 -15 55 -19l434 -32v-324h-1605v324l409 28q33 4 48 23q14 17 16 39q2 28 2 65v402h-508v479h393l-561 811q-34 54 -98 70l-184 45l40 319h1168v-319l-266 -37l393 -635h24l414 635l-278 37l41 319h983v-319l-172 -45 q-63 -17 -103 -78l-545 -803h418v-479z" />
<glyph unicode="&#xa6;" horiz-adv-x="1146" d="M852 -586h-561v1590h561v-1590zM852 1671h-561v1421h561v-1421z" />
<glyph unicode="&#xa7;" horiz-adv-x="2330" d="M279 -434v581l438 -32l41 -238q7 -35 49 -57q117 -49 307 -49q324 0 324 221q0 115 -121 176q-122 62 -293 96q-163 33 -342 88q-168 52 -291 193q-121 139 -121 364q0 331 299 561q-204 162 -204 451q0 328 245 500t623 172q467 0 754 -123v-594l-439 25l-41 229 q-8 41 -45 53q-101 37 -258 37q-147 0 -229 -61t-82 -164t121 -164q120 -61 291 -100q169 -39 342 -99q171 -59 292 -200q121 -140 121 -363q0 -176 -82 -319q-82 -144 -196 -226q184 -147 184 -409q0 -353 -240 -525q-239 -172 -645 -172q-240 0 -491 52q-245 51 -311 96z M1143 1241l-225 62q-148 -95 -148 -254q0 -111 94 -166q98 -58 283 -109l246 -69q163 99 163 266q0 58 -28 98q-29 41 -98 74q-64 30 -121 49q-28 9 -166 49z" />
<glyph unicode="&#xa8;" horiz-adv-x="2048" d="M881 2728q0 -131 -80 -209q-79 -78 -211 -78q-131 0 -211 80t-80 207q0 131 80 209q79 78 211 78t211 -78q80 -78 80 -209zM1733 2728q0 -131 -80 -209q-79 -78 -211 -78q-131 0 -211 80t-80 207q0 131 80 209q79 78 211 78t211 -78q80 -78 80 -209z" />
<glyph unicode="&#xa9;" horiz-adv-x="3153" d="M2949 1307q0 -615 -381 -994q-380 -379 -991 -379q-658 0 -1016 367q-356 365 -356 948q0 627 393 998q392 370 987 370q632 0 998 -354t366 -956zM1585 229q482 0 762 283q279 282 279 770q0 495 -287 768q-285 272 -754 272q-465 0 -756 -284q-292 -285 -292 -785 q0 -478 276 -751t772 -273zM2093 1024v-434q-166 -98 -467 -98q-398 0 -584 215t-186 583q0 360 201 578q201 217 581 217q243 0 459 -82v-455l-221 17l-33 168q-12 49 -41 61q-70 29 -184 29q-397 0 -397 -541q0 -532 421 -532q106 0 160 20q30 12 37 45l49 209h205z" />
<glyph unicode="&#xaa;" horiz-adv-x="1626" d="M1606 1151h-562l-24 143l-16 4q-189 -180 -463 -180q-418 0 -418 398q0 200 133 299q131 97 412 118l290 25v143q0 91 -30 137q-31 48 -133 48q-93 0 -131 -33q-37 -33 -37 -135l-451 32q0 430 631 430q336 0 479 -106q144 -106 144 -381v-631q0 -33 8 -41q7 -7 37 -12 l131 -20v-238zM958 1516v204l-139 -12q-205 -16 -205 -156q0 -110 136 -110q113 0 208 74z" />
<glyph unicode="&#xab;" horiz-adv-x="1933" d="M987 422h-491l-353 631l365 618h500l-328 -569q-25 -38 -4 -78zM1769 422h-491l-352 631l364 618h500l-328 -569q-25 -38 -4 -78z" />
<glyph unicode="&#xac;" horiz-adv-x="2334" d="M1933 705h-454v385h-1131v479h1585v-864z" />
<glyph unicode="&#xad;" horiz-adv-x="1273" d="M1192 930h-1110v520h1110v-520z" />
<glyph unicode="&#xae;" horiz-adv-x="1855" d="M1692 1966q0 -336 -213 -549t-553 -213q-366 0 -564 205t-198 528q0 343 219 555q218 211 547 211q349 0 555 -202q207 -203 207 -535zM1491 1954q0 271 -156 418t-405 147q-247 0 -406 -156t-159 -421q0 -259 151 -406q152 -147 414 -147q261 0 411 151q150 152 150 414 zM1323 1573h-250l-82 217q-17 50 -35 68t-51 18h-49v-168q0 -20 21 -25l61 -12v-98h-348v98l57 8q21 5 21 29v504q0 24 -21 29l-57 8v106h364q283 0 283 -221q0 -160 -143 -209q53 -17 77 -78l58 -139q7 -20 33 -25l61 -12v-98zM856 2011h57q136 0 136 111q0 94 -123 94h-70 v-205z" />
<glyph unicode="&#xaf;" horiz-adv-x="2048" d="M1671 2454h-1298v409h1298v-409z" />
<glyph unicode="&#xb0;" horiz-adv-x="1236" d="M623 2527q83 0 135 60q53 61 53 149q0 90 -53 146q-52 55 -135 55t-140 -60t-57 -153q0 -86 55 -141q56 -56 142 -56zM1090 2736q0 -212 -132 -342q-130 -129 -335 -129q-214 0 -344 127q-132 129 -132 332q0 212 138 344q137 131 338 131q200 0 333 -127 q134 -128 134 -336z" />
<glyph unicode="&#xb1;" horiz-adv-x="2334" d="M1958 0h-1585v475h1585v-475zM1409 557h-491v528h-545v476h545v573h491v-573h549v-476h-549v-528z" />
<glyph unicode="&#xb2;" horiz-adv-x="1622" d="M1520 1434h-1414v295l545 626q184 216 230 289q53 85 53 166q0 135 -168 135q-184 0 -184 -229l-471 45q0 544 700 544q647 0 647 -462q0 -149 -67 -273q-66 -121 -199 -276l-479 -549h377q16 0 32 37l33 196h365v-544z" />
<glyph unicode="&#xb3;" horiz-adv-x="1654" d="M1167 2396v-8q373 -69 373 -430q0 -263 -213 -410t-545 -147q-222 0 -413 67q-190 67 -303 183l249 303q202 -176 426 -176q254 0 254 217q0 196 -250 196q-99 0 -196 -20v336l123 12q152 17 225 72q74 56 74 186q0 168 -168 168q-171 0 -176 -213l-484 45q0 528 693 528 q655 0 655 -471q0 -160 -88 -278q-89 -120 -236 -160z" />
<glyph unicode="&#xb4;" horiz-adv-x="2048" d="M1524 2896l-733 -598l-230 205l627 712z" />
<glyph unicode="&#xb5;" horiz-adv-x="2576" d="M2470 0h-758l-33 221h-24q-225 -270 -529 -270q-123 0 -221 49l-12 -16l78 -705h-639v2855h618v-1356q0 -89 8 -153q7 -58 64 -121q56 -62 158 -62q216 0 409 181v1511h619v-1700q0 -74 57 -78l205 -28v-328z" />
<glyph unicode="&#xb6;" horiz-adv-x="2605" d="M2421 -545h-754v2810h-229v-2810h-742v299l267 33q61 7 61 78v811q-444 29 -664 274q-221 247 -221 672q0 275 88 475q89 202 250 318t365 172q201 55 452 55h1127v-324l-275 -32q-45 -4 -55 -19q-10 -14 -10 -59v-2343q0 -46 12 -58q13 -13 53 -20l275 -33v-299z" />
<glyph unicode="&#xb7;" horiz-adv-x="974" d="M840 1323q0 -319 -353 -319q-352 0 -352 319t352 319q353 0 353 -319z" />
<glyph unicode="&#xb8;" horiz-adv-x="2048" d="M561 -1036l25 278q70 -8 102 -8q283 0 283 205q0 164 -271 172l66 512l295 -33l-37 -274q132 -24 229 -117q95 -92 95 -252q0 -212 -154 -354t-465 -142q-114 0 -168 13z" />
<glyph unicode="&#xb9;" horiz-adv-x="1261" d="M1200 1434h-1069v262l205 24q53 5 53 54v1105q0 46 -37 58l-229 49l41 279h774v-1491q0 -33 8 -41q8 -9 37 -13l217 -24v-262z" />
<glyph unicode="&#xba;" horiz-adv-x="1687" d="M852 1118q-376 0 -561 193t-185 520q0 348 201 549q200 200 578 200q381 0 559 -190t178 -518q0 -353 -190 -553q-190 -201 -580 -201zM868 1442q128 0 191 94t63 324q0 401 -245 401q-267 0 -267 -406q0 -225 66 -319t192 -94z" />
<glyph unicode="&#xbb;" horiz-adv-x="1933" d="M655 422h-495l315 590q21 40 -4 78l-328 581h500l365 -622zM1438 422h-496l315 590q21 40 -4 78l-327 581h499l365 -622z" />
<glyph unicode="&#xbc;" horiz-adv-x="4014" d="M1315 1151h-1069v262l205 25q53 5 53 53v1106q0 45 -37 57l-229 49l41 279h774v-1491q0 -33 8 -41q7 -7 37 -12l217 -25v-262zM1491 -70h-545l1467 3036h540zM3555 0h-495v352h-824v332l795 1143h524v-1122h222v-349h-222v-356zM3060 705v614h-13l-397 -614h410z" />
<glyph unicode="&#xbd;" horiz-adv-x="4014" d="M1307 1151h-1069v262l204 25q54 5 54 53v1106q0 45 -37 57l-230 49l41 279h774v-1491q0 -32 9 -41q7 -7 37 -12l217 -25v-262zM1413 -70h-545l1467 3036h540zM3781 0h-1414v295l545 627q186 218 230 288q53 85 53 166q0 135 -168 135q-184 0 -184 -229l-471 45 q0 545 700 545q647 0 647 -463q0 -148 -67 -272t-199 -277l-479 -549h377q16 0 32 37l33 197h365v-545z" />
<glyph unicode="&#xbe;" horiz-adv-x="4014" d="M1270 2114v-9q372 -69 372 -430q0 -263 -212 -409q-214 -148 -545 -148q-221 0 -414 68q-191 67 -303 182l250 303q202 -176 426 -176q254 0 254 217q0 197 -250 197q-95 0 -197 -21v336l123 12q152 16 225 72q74 56 74 186q0 168 -168 168q-171 0 -176 -213l-483 45 q0 529 692 529q655 0 655 -471q0 -161 -88 -279q-89 -119 -235 -159zM1622 -70h-545l1467 3036h540zM3625 0h-496v352h-823v332l795 1143h524v-1122h221v-349h-221v-356zM3129 705v614h-12l-397 -614h409z" />
<glyph unicode="&#xbf;" horiz-adv-x="2162" d="M1040 1282h619v-745q-126 -11 -225 -23q-91 -11 -213 -47q-129 -38 -199 -92q-71 -55 -127 -156q-55 -100 -55 -235q0 -172 86 -267q85 -94 245 -94q158 0 275 49q46 17 53 82l37 262l500 37v-753q-474 -181 -893 -181q-991 0 -991 844q0 398 227 643q229 247 661 299 v377zM999 1815q0 319 349 319q352 0 352 -319q0 -320 -352 -320q-349 0 -349 320z" />
<glyph unicode="&#xc0;" d="M3097 0h-1295v319l336 37l-147 426h-1016l-144 -426l324 -37v-319h-1143v319l181 46q81 21 102 77l897 2524h725l893 -2532q16 -48 98 -69l189 -46v-319zM1868 1225l-365 1114h-24l-377 -1114h766zM1901 3138l-910 368l209 406l844 -500z" />
<glyph unicode="&#xc1;" d="M3097 0h-1295v319l336 37l-147 426h-1016l-144 -426l324 -37v-319h-1143v319l181 46q81 21 102 77l897 2524h725l893 -2532q16 -48 98 -69l189 -46v-319zM1868 1225l-365 1114h-24l-377 -1114h766zM2159 3506l-910 -364l-143 270l844 500z" />
<glyph unicode="&#xc2;" d="M3097 0h-1295v319l336 37l-147 426h-1016l-144 -426l324 -37v-319h-1143v319l181 46q81 21 102 77l897 2524h725l893 -2532q16 -48 98 -69l189 -46v-319zM1868 1225l-365 1114h-24l-377 -1114h766zM2040 3142l-484 331l-483 -331l-225 229l495 459h426l496 -459z" />
<glyph unicode="&#xc3;" d="M3097 0h-1295v319l336 37l-147 426h-1016l-144 -426l324 -37v-319h-1143v319l181 46q81 21 102 77l897 2524h725l893 -2532q16 -48 98 -69l189 -46v-319zM1868 1225l-365 1114h-24l-377 -1114h766zM2302 3596l-90 -164q-68 -126 -127 -180q-58 -53 -143 -53 q-58 0 -295 57q-393 99 -402 99q-27 0 -65 -33l-136 -127l-225 143l123 209q123 205 270 205q92 0 258 -49q305 -82 406 -103q45 -12 66 17l118 127z" />
<glyph unicode="&#xc4;" d="M3097 0h-1295v319l336 37l-147 426h-1016l-144 -426l324 -37v-319h-1143v319l181 46q81 21 102 77l897 2524h725l893 -2532q16 -48 98 -69l189 -46v-319zM1868 1225l-365 1114h-24l-377 -1114h766zM1417 3486q0 -131 -80 -209q-79 -78 -211 -78t-211 78t-79 209 q0 126 79 204t211 78t211 -78q80 -78 80 -204zM2269 3486q0 -131 -80 -209q-79 -78 -211 -78t-211 78t-79 209q0 126 79 204t211 78t211 -78q80 -78 80 -204z" />
<glyph unicode="&#xc5;" d="M1995 3224q0 -147 -78 -258l893 -2532q16 -48 98 -69l189 -46v-319h-1295v319l336 37l-147 426h-1016l-144 -426l324 -37v-319h-1143v319l181 46q81 21 102 77l897 2519q-78 111 -78 254q0 197 129 320t313 123q185 0 312 -121t127 -313zM1868 1225l-365 1114h-24 l-377 -1114h766zM1556 3060q152 0 152 164q0 172 -152 172q-155 0 -155 -172q0 -164 155 -164z" />
<glyph unicode="&#xc6;" horiz-adv-x="4063" d="M3920 0h-2241v319l230 25q37 4 55 12t29 29q10 20 10 57v795h-778l-410 -881l320 -37v-319h-1123v319l172 46q83 21 140 135l991 2101l-303 41v324h2818v-828l-451 21l-57 299q-16 65 -98 65h-615v-831h959v-455h-959v-799h733q58 0 66 45l65 361h447v-844zM2003 1696 v827h-201l-393 -827h594z" />
<glyph unicode="&#xc7;" horiz-adv-x="2772" d="M1217 -1036l24 278q70 -8 102 -8q283 0 283 205q0 165 -270 172l45 348q-1273 83 -1274 1536q0 684 393 1104t1131 420q572 0 929 -234v-803l-450 37l-66 402q-12 56 -65 73q-158 50 -365 50q-396 0 -624 -269t-228 -780q0 -533 217 -805t607 -272q235 0 409 53 q35 7 51 25q16 17 23 61l61 381h439v-762q-316 -193 -893 -221l-17 -139q134 -24 230 -117q94 -91 94 -252q0 -212 -154 -354t-465 -142q-113 0 -167 13z" />
<glyph unicode="&#xc8;" horiz-adv-x="2568" d="M2425 0h-2269v319l258 29q41 5 53 21q12 17 12 61v2101q0 49 -12 64q-11 13 -53 18l-258 29v324h2179v-828l-451 21l-57 311q-12 53 -70 53h-643v-807h959v-454h-959v-824h733q59 0 66 45l65 361h447v-844zM1638 3138l-909 368l209 406l844 -500z" />
<glyph unicode="&#xc9;" horiz-adv-x="2568" d="M2425 0h-2269v319l258 29q41 5 53 21q12 17 12 61v2101q0 49 -12 64q-11 13 -53 18l-258 29v324h2179v-828l-451 21l-57 311q-12 53 -70 53h-643v-807h959v-454h-959v-824h733q59 0 66 45l65 361h447v-844zM1896 3506l-909 -364l-143 270l844 500z" />
<glyph unicode="&#xca;" horiz-adv-x="2568" d="M2425 0h-2269v319l258 29q41 5 53 21q12 17 12 61v2101q0 49 -12 64q-11 13 -53 18l-258 29v324h2179v-828l-451 21l-57 311q-12 53 -70 53h-643v-807h959v-454h-959v-824h733q59 0 66 45l65 361h447v-844zM1778 3142l-484 331l-483 -331l-225 229l495 459h426l496 -459z " />
<glyph unicode="&#xcb;" horiz-adv-x="2568" d="M2425 0h-2269v319l258 29q41 5 53 21q12 17 12 61v2101q0 49 -12 64q-11 13 -53 18l-258 29v324h2179v-828l-451 21l-57 311q-12 53 -70 53h-643v-807h959v-454h-959v-824h733q59 0 66 45l65 361h447v-844zM1155 3486q0 -131 -80 -209q-79 -78 -211 -78t-211 78 q-80 78 -80 209q0 126 80 204q79 78 211 78t211 -78q80 -78 80 -204zM2007 3486q0 -131 -80 -209q-79 -78 -211 -78t-211 78q-80 78 -80 209q0 126 80 204q79 78 211 78t211 -78q80 -78 80 -204z" />
<glyph unicode="&#xcc;" horiz-adv-x="1654" d="M1524 0h-1377v319l299 29q43 5 54 19q12 15 12 63v2097q0 49 -12 64q-11 13 -54 18l-299 29v328h1377v-328l-316 -33q-46 -5 -55 -18q-10 -14 -10 -60v-2093q0 -49 10 -63q10 -15 55 -19l316 -33v-319zM1180 3138l-910 368l209 406l844 -500z" />
<glyph unicode="&#xcd;" horiz-adv-x="1654" d="M1524 0h-1377v319l299 29q43 5 54 19q12 15 12 63v2097q0 49 -12 64q-11 13 -54 18l-299 29v328h1377v-328l-316 -33q-46 -5 -55 -18q-10 -14 -10 -60v-2093q0 -49 10 -63q10 -15 55 -19l316 -33v-319zM1438 3506l-910 -364l-143 270l844 500z" />
<glyph unicode="&#xce;" horiz-adv-x="1654" d="M1524 0h-1377v319l299 29q43 5 54 19q12 15 12 63v2097q0 49 -12 64q-11 13 -54 18l-299 29v328h1377v-328l-316 -33q-46 -5 -55 -18q-10 -14 -10 -60v-2093q0 -49 10 -63q10 -15 55 -19l316 -33v-319zM1319 3142l-483 331l-484 -331l-225 229l496 459h426l495 -459z" />
<glyph unicode="&#xcf;" horiz-adv-x="1654" d="M1524 0h-1377v319l299 29q43 5 54 19q12 15 12 63v2097q0 49 -12 64q-11 13 -54 18l-299 29v328h1377v-328l-316 -33q-46 -5 -55 -18q-10 -14 -10 -60v-2093q0 -49 10 -63q10 -15 55 -19l316 -33v-319zM696 3486q0 -131 -80 -209t-210 -78q-132 0 -211 78q-80 78 -80 209 q0 126 80 204q79 78 211 78q130 0 210 -78t80 -204zM1548 3486q0 -131 -80 -209t-211 -78t-210 78q-80 78 -80 209q0 126 80 204q79 78 210 78t211 -78t80 -204z" />
<glyph unicode="&#xd0;" horiz-adv-x="3080" d="M1413 0h-1257v328l258 28q41 5 53 19q12 15 12 63v832h-262v438h262v823q0 45 -12 62q-11 15 -53 20l-258 29v324h1327q750 0 1110 -375t360 -1063q0 -709 -385 -1118q-386 -410 -1155 -410zM1114 442h234q962 0 962 1049q0 557 -221 795q-221 237 -717 237h-258v-815 h582v-438h-582v-828z" />
<glyph unicode="&#xd1;" horiz-adv-x="3387" d="M2933 0h-672l-1307 2138v-1704q0 -47 11 -63q10 -15 55 -19l274 -33v-319h-1138v319l258 29q41 5 53 21q12 17 12 61v2105q0 49 -12 64q-11 13 -53 18l-258 29v320h1015l1287 -2143v1704q0 48 -13 64q-11 13 -53 18l-258 29v328h1139v-328l-275 -33q-46 -5 -55 -18 q-10 -14 -10 -60v-2527zM2404 3596l-90 -164q-68 -126 -127 -180q-58 -53 -143 -53q-58 0 -295 57q-393 99 -401 99q-28 0 -66 -33l-135 -127l-225 143l122 209q123 205 271 205q96 0 258 -49q308 -83 405 -103q45 -12 66 17l119 127z" />
<glyph unicode="&#xd2;" d="M1536 -49q-713 0 -1061 411t-348 1113q0 683 381 1114q381 430 1085 430q693 0 1041 -416q348 -415 348 -1075q0 -739 -367 -1159q-366 -418 -1079 -418zM1561 455q770 0 770 1036q0 1012 -746 1012q-368 0 -586 -254q-217 -253 -217 -762q0 -1032 779 -1032zM1929 3154 l-909 369l209 405l844 -500z" />
<glyph unicode="&#xd3;" d="M1536 -49q-713 0 -1061 411t-348 1113q0 683 381 1114q381 430 1085 430q693 0 1041 -416q348 -415 348 -1075q0 -739 -367 -1159q-366 -418 -1079 -418zM1561 455q770 0 770 1036q0 1012 -746 1012q-368 0 -586 -254q-217 -253 -217 -762q0 -1032 779 -1032zM2187 3523 l-909 -365l-143 270l843 500z" />
<glyph unicode="&#xd4;" d="M1536 -49q-713 0 -1061 411t-348 1113q0 683 381 1114q381 430 1085 430q693 0 1041 -416q348 -415 348 -1075q0 -739 -367 -1159q-366 -418 -1079 -418zM1561 455q770 0 770 1036q0 1012 -746 1012q-368 0 -586 -254q-217 -253 -217 -762q0 -1032 779 -1032zM2068 3158 l-483 332l-483 -332l-225 229l495 459h426l496 -459z" />
<glyph unicode="&#xd5;" d="M1536 -49q-713 0 -1061 411t-348 1113q0 683 381 1114q381 430 1085 430q693 0 1041 -416q348 -415 348 -1075q0 -739 -367 -1159q-366 -418 -1079 -418zM1561 455q770 0 770 1036q0 1012 -746 1012q-368 0 -586 -254q-217 -253 -217 -762q0 -1032 779 -1032zM2331 3613 l-90 -164q-68 -126 -127 -180t-144 -54q-54 0 -295 58q-389 98 -401 98q-28 0 -66 -33l-135 -127l-225 144l123 209q122 204 270 204q96 0 258 -49q287 -77 406 -102q44 -12 65 16l119 127z" />
<glyph unicode="&#xd6;" d="M1536 -49q-713 0 -1061 411t-348 1113q0 683 381 1114q381 430 1085 430q693 0 1041 -416q348 -415 348 -1075q0 -739 -367 -1159q-366 -418 -1079 -418zM1561 455q770 0 770 1036q0 1012 -746 1012q-368 0 -586 -254q-217 -253 -217 -762q0 -1032 779 -1032zM1446 3502 q0 -131 -80 -209t-211 -78t-211 78t-80 209q0 127 80 205t211 78t211 -78t80 -205zM2298 3502q0 -131 -80 -209t-211 -78t-211 78t-80 209q0 127 80 205t211 78t211 -78t80 -205z" />
<glyph unicode="&#xd7;" horiz-adv-x="2334" d="M1573 565l-406 406l-405 -406l-344 344l405 406l-405 409l344 344l405 -405l406 405l344 -344l-406 -409l406 -406z" />
<glyph unicode="&#xd8;" d="M1065 -319h-492l189 450q-635 353 -635 1344q0 683 381 1114q381 430 1085 430q195 0 361 -37l106 250h488l-172 -414q303 -189 454 -524q152 -337 152 -766q0 -739 -367 -1159q-366 -418 -1079 -418q-156 0 -348 29zM782 1487q0 -537 213 -795l754 1794q-71 17 -164 17 q-368 0 -586 -254q-217 -253 -217 -762zM1561 455q770 0 770 1036q0 503 -193 762l-745 -1786q83 -12 168 -12z" />
<glyph unicode="&#xd9;" horiz-adv-x="3215" d="M2224 1176v1355q0 49 -12 64q-11 13 -53 18l-258 29v324h1212v-324l-274 -33q-47 -5 -56 -18q-10 -14 -10 -60v-1470q0 -565 -303 -838q-302 -272 -864 -272q-607 0 -885 274q-279 275 -279 852v1454q0 49 -12 64q-11 13 -53 18l-254 29v324h1294v-324l-274 -33 q-47 -5 -56 -18q-10 -14 -10 -60v-1339q0 -377 117 -551t436 -174q327 0 461 160q133 158 133 549zM2011 3138l-909 368l209 406l843 -500z" />
<glyph unicode="&#xda;" horiz-adv-x="3215" d="M2224 1176v1355q0 49 -12 64q-11 13 -53 18l-258 29v324h1212v-324l-274 -33q-47 -5 -56 -18q-10 -14 -10 -60v-1470q0 -565 -303 -838q-302 -272 -864 -272q-607 0 -885 274q-279 275 -279 852v1454q0 49 -12 64q-11 13 -53 18l-254 29v324h1294v-324l-274 -33 q-47 -5 -56 -18q-10 -14 -10 -60v-1339q0 -377 117 -551t436 -174q327 0 461 160q133 158 133 549zM2269 3506l-909 -364l-143 270l843 500z" />
<glyph unicode="&#xdb;" horiz-adv-x="3215" d="M2224 1176v1355q0 49 -12 64q-11 13 -53 18l-258 29v324h1212v-324l-274 -33q-47 -5 -56 -18q-10 -14 -10 -60v-1470q0 -565 -303 -838q-302 -272 -864 -272q-607 0 -885 274q-279 275 -279 852v1454q0 49 -12 64q-11 13 -53 18l-254 29v324h1294v-324l-274 -33 q-47 -5 -56 -18q-10 -14 -10 -60v-1339q0 -377 117 -551t436 -174q327 0 461 160q133 158 133 549zM2150 3142l-483 331l-483 -331l-226 229l496 459h426l496 -459z" />
<glyph unicode="&#xdc;" horiz-adv-x="3215" d="M2224 1176v1355q0 49 -12 64q-11 13 -53 18l-258 29v324h1212v-324l-274 -33q-47 -5 -56 -18q-10 -14 -10 -60v-1470q0 -565 -303 -838q-302 -272 -864 -272q-607 0 -885 274q-279 275 -279 852v1454q0 49 -12 64q-11 13 -53 18l-254 29v324h1294v-324l-274 -33 q-47 -5 -56 -18q-10 -14 -10 -60v-1339q0 -377 117 -551t436 -174q327 0 461 160q133 158 133 549zM1528 3486q0 -131 -80 -209t-211 -78t-211 78t-80 209q0 126 80 204t211 78t211 -78t80 -204zM2380 3486q0 -131 -80 -209t-211 -78t-211 78t-80 209q0 126 80 204t211 78 t211 -78t80 -204z" />
<glyph unicode="&#xdd;" horiz-adv-x="2768" d="M2241 0h-1606v324l409 28q43 5 54 19q12 15 12 63v672l-815 1425q-29 46 -98 70l-185 45l41 320h1229v-320l-319 -37l495 -967h33l496 967l-316 37l41 320h1045v-320l-172 -45q-79 -21 -103 -78l-741 -1409v-680q0 -45 10 -59q10 -15 55 -19l435 -32v-324zM2048 3506 l-909 -364l-144 270l844 500z" />
<glyph unicode="&#xde;" horiz-adv-x="2658" d="M1761 0h-1605v324l258 28q41 5 53 21q12 17 12 61v2093q0 49 -12 64q-11 13 -53 18l-258 29v328h1302v-328l-282 -29q-66 -5 -66 -78v-114h434q987 0 987 -824q0 -921 -1122 -921h-299v-234q0 -49 10 -63t56 -19l585 -32v-324zM1110 1118h205q116 0 207 17q90 17 176 59 q88 43 137 137t49 234q0 245 -139 329t-393 84h-242v-860z" />
<glyph unicode="&#xdf;" horiz-adv-x="2650" d="M967 0h-885v324l201 28q41 5 53 21q12 17 12 61v1794q0 484 260 699t785 215q962 0 962 -783q0 -283 -135 -452q-137 -172 -315 -240v-16q139 -28 243 -74q103 -46 193 -133q92 -89 137 -240q45 -152 45 -364q0 -384 -199 -637q-198 -252 -591 -252q-374 0 -619 139 l135 373q190 -86 340 -86q291 0 291 504q0 273 -113 391q-112 116 -321 121q-145 0 -238 -13v426l156 21q352 45 352 475q0 418 -360 418q-206 0 -297 -94q-92 -95 -92 -361v-2265z" />
<glyph unicode="&#xe0;" horiz-adv-x="2281" d="M2236 0h-753l-41 221l-21 4q-281 -274 -688 -274q-598 0 -598 606q0 303 189 455q190 152 577 176l471 33v225q0 169 -49 246t-225 77q-164 0 -232 -51q-67 -51 -67 -223l-578 49q0 631 881 631q478 0 676 -160q196 -159 196 -581v-996q0 -47 11 -63q10 -15 55 -19 l196 -32v-324zM1372 541v340l-278 -21q-180 -12 -254 -65t-74 -177q0 -225 233 -225q171 0 373 148zM1585 2503l-233 -205l-729 598l335 319z" />
<glyph unicode="&#xe1;" horiz-adv-x="2281" d="M2236 0h-753l-41 221l-21 4q-281 -274 -688 -274q-598 0 -598 606q0 303 189 455q190 152 577 176l471 33v225q0 169 -49 246t-225 77q-164 0 -232 -51q-67 -51 -67 -223l-578 49q0 631 881 631q478 0 676 -160q196 -159 196 -581v-996q0 -47 11 -63q10 -15 55 -19 l196 -32v-324zM1372 541v340l-278 -21q-180 -12 -254 -65t-74 -177q0 -225 233 -225q171 0 373 148zM1610 2896l-733 -598l-230 205l627 712z" />
<glyph unicode="&#xe2;" horiz-adv-x="2281" d="M2236 0h-753l-41 221l-21 4q-281 -274 -688 -274q-598 0 -598 606q0 303 189 455q190 152 577 176l471 33v225q0 169 -49 246t-225 77q-164 0 -232 -51q-67 -51 -67 -223l-578 49q0 631 881 631q478 0 676 -160q196 -159 196 -581v-996q0 -47 11 -63q10 -15 55 -19 l196 -32v-324zM1372 541v340l-278 -21q-180 -12 -254 -65t-74 -177q0 -225 233 -225q171 0 373 148zM1819 2515l-246 -213l-471 381l-471 -381l-246 213l504 528h426z" />
<glyph unicode="&#xe3;" horiz-adv-x="2281" d="M2236 0h-753l-41 221l-21 4q-281 -274 -688 -274q-598 0 -598 606q0 303 189 455q190 152 577 176l471 33v225q0 169 -49 246t-225 77q-164 0 -232 -51q-67 -51 -67 -223l-578 49q0 631 881 631q478 0 676 -160q196 -159 196 -581v-996q0 -47 11 -63q10 -15 55 -19 l196 -32v-324zM1372 541v340l-278 -21q-180 -12 -254 -65t-74 -177q0 -225 233 -225q171 0 373 148zM1847 2785l-90 -164q-68 -126 -127 -180q-58 -53 -143 -53q-58 0 -295 57q-393 99 -401 99q-29 0 -66 -33l-135 -127l-225 143l122 209q123 205 271 205q96 0 258 -49 q308 -83 405 -103q45 -12 66 17l119 127z" />
<glyph unicode="&#xe4;" horiz-adv-x="2281" d="M2236 0h-753l-41 221l-21 4q-281 -274 -688 -274q-598 0 -598 606q0 303 189 455q190 152 577 176l471 33v225q0 169 -49 246t-225 77q-164 0 -232 -51q-67 -51 -67 -223l-578 49q0 631 881 631q478 0 676 -160q196 -159 196 -581v-996q0 -47 11 -63q10 -15 55 -19 l196 -32v-324zM1372 541v340l-278 -21q-180 -12 -254 -65t-74 -177q0 -225 233 -225q171 0 373 148zM963 2728q0 -131 -80 -209q-79 -78 -211 -78q-131 0 -211 80t-80 207q0 131 80 209q79 78 211 78t211 -78q80 -78 80 -209zM1815 2728q0 -131 -80 -209q-79 -78 -211 -78 q-131 0 -211 80t-80 207q0 131 80 209q79 78 211 78t211 -78q80 -78 80 -209z" />
<glyph unicode="&#xe5;" horiz-adv-x="2281" d="M2236 0h-753l-41 221l-21 4q-281 -274 -688 -274q-598 0 -598 606q0 303 189 455q190 152 577 176l471 33v225q0 169 -49 246t-225 77q-164 0 -232 -51q-67 -51 -67 -223l-578 49q0 631 881 631q478 0 676 -160q196 -159 196 -581v-996q0 -47 11 -63q10 -15 55 -19 l196 -32v-324zM1372 541v340l-278 -21q-180 -12 -254 -65t-74 -177q0 -225 233 -225q171 0 373 148zM1507 2716q0 -184 -112 -295q-113 -111 -293 -111t-295 109t-115 284q0 184 119 297t291 113q171 0 289 -109q116 -107 116 -288zM1102 2560q143 0 143 156q0 151 -143 151 q-148 0 -148 -155q0 -152 148 -152z" />
<glyph unicode="&#xe6;" horiz-adv-x="3371" d="M3068 565l151 -405q-432 -209 -843 -209q-478 0 -729 291q-402 -291 -820 -291q-692 0 -692 606q0 303 189 461q190 158 577 182l471 33v213q0 169 -49 246t-225 77q-164 0 -232 -51q-67 -51 -67 -223l-578 49q0 631 840 631q513 0 688 -274q220 274 651 274 q407 0 621 -229q215 -230 215 -742q0 -147 -12 -270h-1250q12 -257 127 -381q114 -123 353 -123q245 0 614 135zM1376 889l-282 -21q-181 -12 -254 -69q-74 -57 -74 -185q0 -225 242 -225q236 0 442 180q-58 170 -74 320zM1974 1290h652q-4 254 -84 348q-80 95 -224 95 q-320 0 -344 -443z" />
<glyph unicode="&#xe7;" horiz-adv-x="2088" d="M754 -1036l24 278q70 -8 103 -8q282 0 282 205q0 165 -270 172l45 360q-414 66 -621 351q-206 284 -206 714q0 557 305 848q304 291 817 291q226 0 424 -51q196 -51 305 -121v-643l-438 20l-49 271q-7 52 -50 65q-87 29 -208 29q-201 0 -328 -156q-127 -155 -127 -491 q0 -684 528 -684q239 0 512 118l160 -380q-308 -189 -729 -201l-16 -135q132 -24 229 -117q94 -91 94 -252q0 -212 -154 -354t-464 -142q-114 0 -168 13z" />
<glyph unicode="&#xe8;" horiz-adv-x="2150" d="M1860 565l151 -405q-432 -209 -840 -209q-560 0 -811 305q-249 303 -249 825q0 533 284 813q286 281 731 281q427 0 664 -240q238 -241 238 -751q0 -79 -9 -275h-1253q33 -483 483 -483q236 0 611 139zM770 1298h651q-5 435 -307 435q-311 0 -344 -435zM1589 2503 l-233 -205l-729 598l336 319z" />
<glyph unicode="&#xe9;" horiz-adv-x="2150" d="M1860 565l151 -405q-432 -209 -840 -209q-560 0 -811 305q-249 303 -249 825q0 533 284 813q286 281 731 281q427 0 664 -240q238 -241 238 -751q0 -79 -9 -275h-1253q33 -483 483 -483q236 0 611 139zM770 1298h651q-5 435 -307 435q-311 0 -344 -435zM1614 2896 l-733 -598l-230 205l627 712z" />
<glyph unicode="&#xea;" horiz-adv-x="2150" d="M1860 565l151 -405q-432 -209 -840 -209q-560 0 -811 305q-249 303 -249 825q0 533 284 813q286 281 731 281q427 0 664 -240q238 -241 238 -751q0 -79 -9 -275h-1253q33 -483 483 -483q236 0 611 139zM770 1298h651q-5 435 -307 435q-311 0 -344 -435zM1823 2515 l-246 -213l-471 381l-471 -381l-246 213l504 528h426z" />
<glyph unicode="&#xeb;" horiz-adv-x="2150" d="M1860 565l151 -405q-432 -209 -840 -209q-560 0 -811 305q-249 303 -249 825q0 533 284 813q286 281 731 281q427 0 664 -240q238 -241 238 -751q0 -79 -9 -275h-1253q33 -483 483 -483q236 0 611 139zM770 1298h651q-5 435 -307 435q-311 0 -344 -435zM967 2728 q0 -131 -80 -209q-79 -78 -211 -78q-131 0 -211 80t-80 207q0 131 80 209q79 78 211 78t211 -78q80 -78 80 -209zM1819 2728q0 -131 -80 -209q-79 -78 -211 -78q-131 0 -211 80t-80 207q0 131 80 209q79 78 211 78t211 -78q80 -78 80 -209z" />
<glyph unicode="&#xec;" horiz-adv-x="1294" d="M1057 2494l-234 -204l-729 598l336 319zM1249 0h-1167v324l209 28q41 5 53 21q12 17 12 61v1204q0 69 -53 86l-221 78l45 332h848v-1700q0 -49 10 -63q10 -15 55 -19l209 -28v-324z" />
<glyph unicode="&#xed;" horiz-adv-x="1294" d="M1081 2888l-733 -598l-229 204l626 713zM1249 0h-1167v324l209 28q41 5 53 21q12 17 12 61v1204q0 69 -53 86l-221 78l45 332h848v-1700q0 -49 10 -63q10 -15 55 -19l209 -28v-324z" />
<glyph unicode="&#xee;" horiz-adv-x="1294" d="M1241 2531l-246 -213l-422 381l-421 -381l-246 213l454 529h426zM1249 0h-1167v324l209 28q41 5 53 21q12 17 12 61v1204q0 69 -53 86l-221 78l45 332h848v-1700q0 -49 10 -63q10 -15 55 -19l209 -28v-324z" />
<glyph unicode="&#xef;" horiz-adv-x="1294" d="M455 2675q0 -131 -80 -209q-79 -78 -211 -78q-131 0 -211 80t-80 207q0 131 80 209q78 77 211 77t211 -77q80 -78 80 -209zM1266 2675q0 -131 -80 -209t-211 -78t-211 80t-80 207q0 131 80 209q78 77 211 77t211 -77q80 -78 80 -209zM1249 0h-1167v324l209 28q41 5 53 21 q12 17 12 61v1204q0 69 -53 86l-221 78l45 332h848v-1700q0 -49 10 -63q10 -15 55 -19l209 -28v-324z" />
<glyph unicode="&#xf0;" horiz-adv-x="2396" d="M123 1008q0 468 252 766q252 299 735 299q303 0 512 -164q-128 357 -416 553q-290 197 -628 258l204 475q388 -73 676 -250l447 283l299 -447l-332 -201q389 -488 389 -1269q0 -635 -264 -998q-263 -362 -838 -362q-520 0 -778 282t-258 775zM770 1036q0 -331 102 -487 t316 -156q467 0 467 840q0 110 -21 266q-193 152 -426 152q-216 0 -327 -140q-111 -139 -111 -475z" />
<glyph unicode="&#xf1;" horiz-adv-x="2555" d="M2507 0h-889v1323q0 121 -10 184q-10 65 -60 121q-49 55 -147 55q-106 0 -230 -47q-121 -46 -196 -104v-1098q0 -49 10 -63q10 -15 55 -19l197 -28v-324h-1131v328l185 24q41 5 53 21q12 17 12 61v1204q0 69 -53 86l-221 78l49 332h717l33 -213l16 -8q352 262 721 262 q328 0 473 -174q145 -173 145 -522v-1045q0 -47 11 -63q10 -15 55 -19l205 -28v-324zM1978 2785l-90 -164q-68 -126 -127 -180q-58 -53 -143 -53q-58 0 -295 57q-393 99 -401 99q-28 0 -66 -33l-135 -127l-225 143l122 209q123 205 271 205q96 0 258 -49q308 -83 405 -103 q45 -12 66 17l119 127z" />
<glyph unicode="&#xf2;" horiz-adv-x="2379" d="M1163 -49q-536 0 -794 297t-258 805q0 526 278 823q279 299 828 299q540 0 796 -289t256 -788q0 -539 -278 -842q-279 -305 -828 -305zM1192 381q430 0 430 696q0 353 -102 504q-102 152 -312 152q-450 0 -450 -660q0 -692 434 -692zM1700 2503l-234 -205l-729 598 l336 319z" />
<glyph unicode="&#xf3;" horiz-adv-x="2379" d="M1163 -49q-536 0 -794 297t-258 805q0 526 278 823q279 299 828 299q540 0 796 -289t256 -788q0 -539 -278 -842q-279 -305 -828 -305zM1192 381q430 0 430 696q0 353 -102 504q-102 152 -312 152q-450 0 -450 -660q0 -692 434 -692zM1724 2896l-733 -598l-229 205 l627 712z" />
<glyph unicode="&#xf4;" horiz-adv-x="2379" d="M1163 -49q-536 0 -794 297t-258 805q0 526 278 823q279 299 828 299q540 0 796 -289t256 -788q0 -539 -278 -842q-279 -305 -828 -305zM1192 381q430 0 430 696q0 353 -102 504q-102 152 -312 152q-450 0 -450 -660q0 -692 434 -692zM1933 2515l-245 -213l-471 381 l-472 -381l-245 213l504 528h426z" />
<glyph unicode="&#xf5;" horiz-adv-x="2379" d="M1163 -49q-536 0 -794 297t-258 805q0 526 278 823q279 299 828 299q540 0 796 -289t256 -788q0 -539 -278 -842q-279 -305 -828 -305zM1192 381q430 0 430 696q0 353 -102 504q-102 152 -312 152q-450 0 -450 -660q0 -692 434 -692zM1962 2785l-90 -164 q-68 -126 -127 -180q-58 -53 -143 -53q-58 0 -295 57q-393 99 -402 99q-27 0 -65 -33l-135 -127l-226 143l123 209q123 205 270 205q96 0 258 -49q305 -82 406 -103q45 -12 66 17l118 127z" />
<glyph unicode="&#xf6;" horiz-adv-x="2379" d="M1163 -49q-536 0 -794 297t-258 805q0 526 278 823q279 299 828 299q540 0 796 -289t256 -788q0 -539 -278 -842q-279 -305 -828 -305zM1192 381q430 0 430 696q0 353 -102 504q-102 152 -312 152q-450 0 -450 -660q0 -692 434 -692zM1077 2728q0 -131 -80 -209 q-79 -78 -211 -78q-131 0 -211 80q-79 79 -79 207q0 131 79 209t211 78t211 -78q80 -78 80 -209zM1929 2728q0 -131 -80 -209q-79 -78 -211 -78q-131 0 -211 80q-79 79 -79 207q0 131 79 209t211 78t211 -78q80 -78 80 -209z" />
<glyph unicode="&#xf7;" horiz-adv-x="2334" d="M1475 639q0 -299 -320 -299q-324 0 -324 299q0 135 84 217q83 82 240 82q156 0 238 -82t82 -217zM1958 1077h-1585v475h1585v-475zM1475 1991q0 -295 -320 -295q-324 0 -324 295q0 135 82 217t242 82q155 0 238 -80q82 -79 82 -219z" />
<glyph unicode="&#xf8;" horiz-adv-x="2379" d="M774 -332h-438l196 443q-421 262 -421 942q0 526 278 823q279 299 828 299q133 0 225 -16l123 278h434l-176 -401q446 -253 446 -938q0 -539 -278 -842q-279 -305 -828 -305q-129 0 -258 20zM1192 381q430 0 430 696q0 232 -53 393l-475 -1081q61 -8 98 -8zM758 1073 q0 -227 41 -364l450 1020q-11 4 -41 4q-450 0 -450 -660z" />
<glyph unicode="&#xf9;" horiz-adv-x="2551" d="M2482 0h-762l-32 221l-21 4q-104 -81 -188 -131q-82 -49 -230 -96q-149 -47 -311 -47q-316 0 -455 178t-139 543v999q0 50 -10 64q-10 15 -55 22l-197 41l41 336h840v-1356q0 -192 45 -268t172 -76q216 0 422 189v1052q0 49 -11 62t-55 20l-176 41l45 336h815v-1700 q0 -45 10 -59q10 -15 47 -19l205 -28v-328zM1630 2503l-233 -205l-729 598l336 319z" />
<glyph unicode="&#xfa;" horiz-adv-x="2551" d="M2482 0h-762l-32 221l-21 4q-104 -81 -188 -131q-82 -49 -230 -96q-149 -47 -311 -47q-316 0 -455 178t-139 543v999q0 50 -10 64q-10 15 -55 22l-197 41l41 336h840v-1356q0 -192 45 -268t172 -76q216 0 422 189v1052q0 49 -11 62t-55 20l-176 41l45 336h815v-1700 q0 -45 10 -59q10 -15 47 -19l205 -28v-328zM1798 2896l-733 -598l-229 205l626 712z" />
<glyph unicode="&#xfb;" horiz-adv-x="2551" d="M2482 0h-762l-32 221l-21 4q-104 -81 -188 -131q-82 -49 -230 -96q-149 -47 -311 -47q-316 0 -455 178t-139 543v999q0 50 -10 64q-10 15 -55 22l-197 41l41 336h840v-1356q0 -192 45 -268t172 -76q216 0 422 189v1052q0 49 -11 62t-55 20l-176 41l45 336h815v-1700 q0 -45 10 -59q10 -15 47 -19l205 -28v-328zM1942 2515l-246 -213l-471 381l-471 -381l-246 213l504 528h426z" />
<glyph unicode="&#xfc;" horiz-adv-x="2551" d="M2482 0h-762l-32 221l-21 4q-104 -81 -188 -131q-82 -49 -230 -96q-149 -47 -311 -47q-316 0 -455 178t-139 543v999q0 50 -10 64q-10 15 -55 22l-197 41l41 336h840v-1356q0 -192 45 -268t172 -76q216 0 422 189v1052q0 49 -11 62t-55 20l-176 41l45 336h815v-1700 q0 -45 10 -59q10 -15 47 -19l205 -28v-328zM1085 2728q0 -131 -79 -209q-80 -78 -211 -78t-211 80t-80 207q0 131 80 209t211 78t211 -78q79 -78 79 -209zM1937 2728q0 -131 -79 -209q-80 -78 -211 -78t-211 80t-80 207q0 131 80 209t211 78t211 -78q79 -78 79 -209z" />
<glyph unicode="&#xfd;" horiz-adv-x="2535" d="M1815 -868h-1364v331l319 37q64 4 102 90l177 390l-783 1712q-16 52 -86 69l-168 41l66 332h1085v-332l-258 -33l455 -1081h29l434 1081l-267 33l54 332h913v-332l-131 -24q-78 -12 -102 -70l-901 -2204l426 -45v-327zM1815 2896l-734 -598l-229 205l627 712z" />
<glyph unicode="&#xfe;" horiz-adv-x="2478" d="M1413 -868h-1339v327l164 25q44 7 59 24q14 15 14 62v3027q0 69 -53 86l-221 78l45 331h840v-1163l16 -8q325 254 635 254q778 0 778 -1049q0 -218 -47 -421q-46 -201 -141 -375q-96 -176 -260 -277q-167 -102 -383 -102q-343 0 -602 209v-586q0 -48 12 -63 q12 -14 57 -19l426 -37v-323zM930 1540v-958q202 -152 389 -152q385 0 385 664q0 598 -377 598q-183 0 -397 -152z" />
<glyph unicode="&#xff;" horiz-adv-x="2535" d="M1815 -868h-1364v331l319 37q64 4 102 90l177 390l-783 1712q-16 52 -86 69l-168 41l66 332h1085v-332l-258 -33l455 -1081h29l434 1081l-267 33l54 332h913v-332l-131 -24q-78 -12 -102 -70l-901 -2204l426 -45v-327zM1167 2728q0 -131 -80 -209q-79 -78 -210 -78 t-211 80t-80 207q0 131 80 209t211 78t210 -78q80 -78 80 -209zM2019 2728q0 -131 -80 -209q-79 -78 -210 -78t-211 80t-80 207q0 131 80 209t211 78t210 -78q80 -78 80 -209z" />
<glyph unicode="&#x152;" horiz-adv-x="4083" d="M3940 0h-2105q-187 -49 -422 -49q-1285 0 -1286 1524q0 696 334 1120t1009 424q215 0 418 -53h1962v-828l-450 21l-58 311q-12 53 -69 53h-799q234 -303 258 -807h868v-454h-872q-38 -533 -279 -824h914q57 0 65 45l66 361h446v-844zM1434 496q320 0 477 239t157 756 q0 983 -602 983q-319 0 -491 -256t-172 -731q0 -507 155 -748q156 -243 476 -243z" />
<glyph unicode="&#x153;" horiz-adv-x="3633" d="M3330 561l152 -401q-439 -209 -799 -209q-528 0 -774 340q-270 -340 -787 -340q-520 0 -766 301q-245 300 -245 825q0 504 270 801t778 297q537 0 774 -332q242 332 725 332q381 0 611 -244q229 -242 229 -760q0 -114 -12 -237h-1250q12 -257 127 -383q114 -125 353 -125 q245 0 614 135zM1192 393q422 0 422 684q0 643 -406 643q-438 0 -438 -647q0 -680 422 -680zM2241 1290h651q0 443 -312 443q-315 0 -339 -443z" />
<glyph unicode="&#x178;" horiz-adv-x="2768" d="M2241 0h-1606v324l409 28q43 5 54 19q12 15 12 63v672l-815 1425q-29 46 -98 70l-185 45l41 320h1229v-320l-319 -37l495 -967h33l496 967l-316 37l41 320h1045v-320l-172 -45q-79 -21 -103 -78l-741 -1409v-680q0 -45 10 -59q10 -15 55 -19l435 -32v-324zM1307 3486 q0 -131 -80 -209q-79 -78 -211 -78t-211 78q-80 78 -80 209q0 126 80 204q79 78 211 78t211 -78q80 -78 80 -204zM2159 3486q0 -131 -80 -209q-79 -78 -211 -78t-211 78q-80 78 -80 209q0 126 80 204q79 78 211 78t211 -78q80 -78 80 -204z" />
<glyph unicode="&#x2c6;" horiz-adv-x="2048" d="M1741 2515l-246 -213l-471 381l-471 -381l-246 213l504 528h426z" />
<glyph unicode="&#x2dc;" horiz-adv-x="2048" d="M1765 2785l-90 -164q-68 -126 -127 -180q-58 -53 -143 -53q-58 0 -295 57q-393 99 -401 99q-29 0 -66 -33l-135 -127l-225 143l123 209q123 205 270 205q96 0 258 -49q308 -83 405 -103q45 -12 66 17l119 127z" />
<glyph unicode="&#x2000;" horiz-adv-x="1961" />
<glyph unicode="&#x2001;" horiz-adv-x="3928" />
<glyph unicode="&#x2002;" horiz-adv-x="1961" />
<glyph unicode="&#x2003;" horiz-adv-x="3928" />
<glyph unicode="&#x2004;" horiz-adv-x="1306" />
<glyph unicode="&#x2005;" horiz-adv-x="978" />
<glyph unicode="&#x2006;" horiz-adv-x="651" />
<glyph unicode="&#x2007;" horiz-adv-x="651" />
<glyph unicode="&#x2008;" horiz-adv-x="487" />
<glyph unicode="&#x2009;" horiz-adv-x="782" />
<glyph unicode="&#x200a;" horiz-adv-x="217" />
<glyph unicode="&#x2010;" horiz-adv-x="1273" d="M1192 930h-1110v520h1110v-520z" />
<glyph unicode="&#x2011;" horiz-adv-x="1273" d="M1192 930h-1110v520h1110v-520z" />
<glyph unicode="&#x2013;" horiz-adv-x="2048" d="M2044 930h-2044v438h2044v-438z" />
<glyph unicode="&#x2014;" horiz-adv-x="4096" d="M4096 930h-4096v438h4096v-438z" />
<glyph unicode="&#x2018;" horiz-adv-x="921" d="M778 2593l-82 -393q-179 5 -274 20q-101 16 -180 86q-78 69 -78 193q0 106 78 262l196 413l258 -77l-94 -406q-4 -32 21 -45z" />
<glyph unicode="&#x2019;" horiz-adv-x="921" d="M487 2200l-262 77l94 406q12 37 -20 49l-156 49l82 393q130 0 209 -10q81 -10 164 -39q81 -28 121 -92q39 -63 39 -158q0 -114 -74 -262z" />
<glyph unicode="&#x201a;" horiz-adv-x="946" d="M528 -553l-258 78l90 397q12 41 -20 53l-156 54l82 393q262 -4 400 -62q137 -57 137 -237q0 -98 -78 -266z" />
<glyph unicode="&#x201c;" horiz-adv-x="1658" d="M778 2593l-82 -393q-179 5 -274 20q-101 16 -180 86q-78 69 -78 193q0 106 78 262l196 413l258 -77l-94 -406q-4 -32 21 -45zM1516 2593l-82 -393q-180 5 -275 20q-101 16 -180 86q-78 69 -78 193q0 106 78 262l197 413l258 -77l-95 -406q-4 -32 21 -45z" />
<glyph unicode="&#x201d;" horiz-adv-x="1658" d="M487 2200l-262 77l94 406q12 37 -20 49l-156 49l82 393q130 0 209 -10q81 -10 164 -39q81 -28 121 -92q39 -63 39 -158q0 -114 -74 -262zM1225 2200l-262 77l94 406q12 37 -21 49l-155 49l82 393q129 0 208 -10q81 -10 164 -39q81 -28 121 -92q39 -63 39 -158 q0 -114 -74 -262z" />
<glyph unicode="&#x201e;" horiz-adv-x="1683" d="M528 -553l-258 78l90 397q12 41 -20 53l-156 54l82 393q262 -4 400 -62q137 -57 137 -237q0 -98 -78 -266zM1266 -553l-258 78l90 397q12 41 -21 53l-155 54l82 393q261 -4 399 -62q137 -57 137 -237q0 -98 -78 -266z" />
<glyph unicode="&#x2022;" horiz-adv-x="1687" d="M1462 1143q0 -295 -159 -447q-158 -151 -463 -151q-615 0 -615 598t615 598q303 0 463 -152q159 -151 159 -446z" />
<glyph unicode="&#x2026;" horiz-adv-x="2887" d="M864 270q0 -319 -348 -319q-352 0 -352 319q0 320 352 320q348 0 348 -320zM1798 270q0 -319 -348 -319q-352 0 -352 319q0 320 352 320q348 0 348 -320zM2724 270q0 -319 -348 -319q-353 0 -353 319q0 320 353 320q348 0 348 -320z" />
<glyph unicode="&#x202f;" horiz-adv-x="782" />
<glyph unicode="&#x2039;" horiz-adv-x="1150" d="M987 422h-491l-353 631l365 618h500l-328 -569q-25 -38 -4 -78z" />
<glyph unicode="&#x203a;" horiz-adv-x="1150" d="M655 422h-495l315 590q21 40 -4 78l-328 581h500l365 -622z" />
<glyph unicode="&#x205f;" horiz-adv-x="978" />
<glyph unicode="&#x20ac;" horiz-adv-x="2289" d="M1479 1085h-533q28 -356 150 -520t342 -164q117 0 196 29q40 16 45 62l66 327l422 21v-713q-101 -65 -336 -121q-232 -55 -459 -55q-990 0 -1085 1134h-312l82 480h230q57 560 364 839t754 279q222 0 438 -55q215 -55 328 -125v-697l-426 21l-62 315q-5 54 -49 70 q-70 29 -204 29q-436 0 -488 -676h614z" />
<glyph unicode="&#x2122;" horiz-adv-x="3469" d="M1188 1425h-811v209l221 21v1044h-266l-25 -209h-209v476h1360v-476h-209l-20 209h-275v-1044l234 -21v-209zM3379 1425h-672v205l205 21v753l-282 -647h-324l-287 651v-757l217 -21v-205h-671v205l147 21v1097l-147 17v201h532l385 -906l373 906h516v-201l-156 -17 v-1097l164 -21v-205z" />
<glyph horiz-adv-x="2048" />
</font>
</defs>
</svg>
